<svg width="512" height="512" viewBox="0 0 256 256" xmlns="http://www.w3.org/2000/svg" role="img" aria-label="Export text to file icon">
  <defs>
    <!-- 背景グラデーション（水色系） -->
    <linearGradient id="bgGrad" x1="0" y1="0" x2="1" y2="1">
      <stop offset="0%" stop-color="#B3E5FC"/>
      <stop offset="100%" stop-color="#03A9F4"/>
    </linearGradient>
    <style>
      .ink { fill:#0B2540; }
    </style>
  </defs>

  <!-- 背景（正方形・角丸） -->
  <rect x="0" y="0" width="256" height="256" rx="28" fill="url(#bgGrad)"/>

  <!-- アイコン小さめ（0.20倍）で中央寄せ -->
  <g transform="translate(25,25) scale(0.20) translate(0,960)">
    <path class="ink" d="m720-120 160-160-56-56-64 64v-167h-80v167l-64-64-56 56 160 160ZM560 0v-80h320V0H560ZM240-160q-33 0-56.5-23.5T160-240v-560q0-33 23.5-56.5T240-880h280l240 240v121h-80v-81H480v-200H240v560h240v80H240Zm0-80v-560 560Z"/>
  </g>
</svg>
